# Exported from Wings 3D 2.1.5
mtllib ./ticker.mtl
o Cube1
#56 vertices, 54 faces
v -0.50000000 -0.50000000 -0.50000000
v -0.50000000 -0.50000000 0.50000000
v -0.50000000 0.50000000 -0.50000000
v -0.50000000 0.50000000 0.50000000
v 0.50000000 -0.50000000 -0.50000000
v 0.50000000 -0.50000000 0.50000000
v 0.50000000 0.50000000 -0.50000000
v 0.50000000 0.50000000 0.50000000
v -0.45300000 0.50000000 -0.45300000
v -0.45300000 0.50000000 0.45300000
v 0.45300000 0.50000000 0.45300000
v 0.45300000 0.50000000 -0.45300000
v -0.45300000 -0.50000000 0.45300000
v -0.45300000 -0.50000000 -0.45300000
v 0.45300000 -0.50000000 -0.45300000
v 0.45300000 -0.50000000 0.45300000
v -0.45300000 0.45300000 0.50000000
v -0.45300000 -0.45300000 0.50000000
v 0.45300000 -0.45300000 0.50000000
v 0.45300000 0.45300000 0.50000000
v -0.45300000 -0.45300000 -0.50000000
v -0.45300000 0.45300000 -0.50000000
v 0.45300000 0.45300000 -0.50000000
v 0.45300000 -0.45300000 -0.50000000
v 0.50000000 -0.45300000 0.45300000
v 0.50000000 -0.45300000 -0.45300000
v 0.50000000 0.45300000 -0.45300000
v 0.50000000 0.45300000 0.45300000
v -0.50000000 -0.45300000 -0.45300000
v -0.50000000 -0.45300000 0.45300000
v -0.50000000 0.45300000 0.45300000
v -0.50000000 0.45300000 -0.45300000
v -0.47524196 -0.45300000 -0.45300000
v -0.47524196 -0.45300000 0.45300000
v -0.47524196 0.45300000 0.45300000
v -0.47524196 0.45300000 -0.45300000
v 0.47524196 -0.45300000 0.45300000
v 0.47524196 -0.45300000 -0.45300000
v 0.47524196 0.45300000 -0.45300000
v 0.47524196 0.45300000 0.45300000
v -0.45300000 -0.45300000 -0.47524196
v -0.45300000 0.45300000 -0.47524196
v 0.45300000 0.45300000 -0.47524196
v 0.45300000 -0.45300000 -0.47524196
v -0.45300000 0.45300000 0.47524196
v -0.45300000 -0.45300000 0.47524196
v 0.45300000 -0.45300000 0.47524196
v 0.45300000 0.45300000 0.47524196
v -0.45300000 -0.47524196 0.45300000
v -0.45300000 -0.47524196 -0.45300000
v 0.45300000 -0.47524196 -0.45300000
v 0.45300000 -0.47524196 0.45300000
v -0.45300000 0.47524196 -0.45300000
v -0.45300000 0.47524196 0.45300000
v 0.45300000 0.47524196 0.45300000
v 0.45300000 0.47524196 -0.45300000
vt 0.0000000e+0 0.40758294
vt 0.0000000e+0 0.40758294
vt 0.0000000e+0 1.00000000
vt 5.5511151e-17 0.40758294
vt 1.1102230e-16 0.40758294
vt 1.1102230e-16 1.00000000
vt 1.6653345e-16 1.00000000
vt 6.6613381e-16 1.00000000
vt 7.7715612e-16 1.00000000
vt 8.3266727e-16 0.40758294
vt 8.8817842e-16 0.40758294
vt 8.8817842e-16 0.40758294
vt 2.7843602e-2 0.43542654
vt 2.7843602e-2 0.97215640
vt 2.7843602e-2 0.43542654
vt 2.7843602e-2 0.43542654
vt 2.7843602e-2 0.97215640
vt 2.7843602e-2 0.97215640
vt 2.7843602e-2 0.43542654
vt 2.7843602e-2 0.43542654
vt 2.7843602e-2 0.43542654
vt 2.7843602e-2 0.43542654
vt 2.7843602e-2 0.97215640
vt 2.7843602e-2 0.43542654
vt 2.7843602e-2 0.97215640
vt 2.7843602e-2 0.97215640
vt 2.7843602e-2 0.97215640
vt 2.7843602e-2 0.97215640
vt 2.7843602e-2 0.43542654
vt 2.7843602e-2 0.43542654
vt 2.7843602e-2 0.43542654
vt 0.24428655 0.46327014
vt 0.24428655 0.46327014
vt 0.24428655 0.46327014
vt 0.24428655 0.46327014
vt 0.24428655 0.46327014
vt 0.24428655 1.00000000
vt 0.24428655 1.00000000
vt 0.24428655 0.46327014
vt 0.24428655 0.46327014
vt 0.24428655 1.00000000
vt 0.24428655 1.00000000
vt 0.24428655 1.00000000
vt 0.24428655 1.00000000
vt 0.24428655 1.00000000
vt 0.25895364 0.46327014
vt 0.25895364 0.46327014
vt 0.25895364 0.46327014
vt 0.25895364 0.46327014
vt 0.25895364 0.46327014
vt 0.25895364 0.46327014
vt 0.25895364 0.46327014
vt 0.25895364 1.00000000
vt 0.25895364 0.46327014
vt 0.25895364 1.00000000
vt 0.25895364 1.00000000
vt 0.25895364 1.00000000
vt 0.46327014 0.46327014
vt 0.46327014 0.46327014
vt 0.46327014 1.00000000
vt 0.46327014 0.46327014
vt 0.46327014 0.46327014
vt 0.46327014 1.00000000
vt 0.46327014 1.00000000
vt 0.46327014 0.46327014
vt 0.46327014 1.00000000
vt 1.00000000 0.46327014
vt 1.00000000 0.46327014
vt 1.00000000 1.00000000
vn 0.0000000e+0 -1.00000000 0.0000000e+0
vn 0.0000000e+0 -1.00000000 0.0000000e+0
vn 0.0000000e+0 0.0000000e+0 -1.00000000
vn 0.0000000e+0 0.0000000e+0 -1.00000000
vn -1.00000000 0.0000000e+0 0.0000000e+0
vn -1.00000000 0.0000000e+0 0.0000000e+0
vn 0.0000000e+0 -1.00000000 0.0000000e+0
vn 0.0000000e+0 -1.00000000 0.0000000e+0
vn 0.0000000e+0 0.0000000e+0 1.00000000
vn 0.0000000e+0 0.0000000e+0 1.00000000
vn -1.00000000 0.0000000e+0 0.0000000e+0
vn -1.00000000 0.0000000e+0 0.0000000e+0
vn 0.0000000e+0 1.00000000 0.0000000e+0
vn 0.0000000e+0 1.00000000 0.0000000e+0
vn 0.0000000e+0 0.0000000e+0 -1.00000000
vn 0.0000000e+0 0.0000000e+0 -1.00000000
vn -1.00000000 0.0000000e+0 0.0000000e+0
vn -1.00000000 0.0000000e+0 0.0000000e+0
vn 0.0000000e+0 1.00000000 0.0000000e+0
vn 0.0000000e+0 1.00000000 0.0000000e+0
vn 0.0000000e+0 0.0000000e+0 1.00000000
vn 0.0000000e+0 0.0000000e+0 1.00000000
vn -1.00000000 0.0000000e+0 0.0000000e+0
vn -1.00000000 0.0000000e+0 0.0000000e+0
vn 0.0000000e+0 -1.00000000 0.0000000e+0
vn 0.0000000e+0 -1.00000000 0.0000000e+0
vn 0.0000000e+0 0.0000000e+0 -1.00000000
vn 0.0000000e+0 0.0000000e+0 -1.00000000
vn 1.00000000 0.0000000e+0 0.0000000e+0
vn 1.00000000 0.0000000e+0 0.0000000e+0
vn 0.0000000e+0 -1.00000000 0.0000000e+0
vn 0.0000000e+0 -1.00000000 0.0000000e+0
vn 0.0000000e+0 0.0000000e+0 1.00000000
vn 0.0000000e+0 0.0000000e+0 1.00000000
vn 1.00000000 0.0000000e+0 0.0000000e+0
vn 1.00000000 0.0000000e+0 0.0000000e+0
vn 0.0000000e+0 1.00000000 0.0000000e+0
vn 0.0000000e+0 1.00000000 0.0000000e+0
vn 0.0000000e+0 0.0000000e+0 -1.00000000
vn 0.0000000e+0 0.0000000e+0 -1.00000000
vn 1.00000000 0.0000000e+0 0.0000000e+0
vn 1.00000000 0.0000000e+0 0.0000000e+0
vn 0.0000000e+0 1.00000000 0.0000000e+0
vn 0.0000000e+0 1.00000000 0.0000000e+0
vn 0.0000000e+0 0.0000000e+0 1.00000000
vn 0.0000000e+0 0.0000000e+0 1.00000000
vn 1.00000000 0.0000000e+0 0.0000000e+0
vn 1.00000000 0.0000000e+0 0.0000000e+0
vn 0.0000000e+0 1.00000000 0.0000000e+0
vn 0.0000000e+0 1.00000000 0.0000000e+0
vn 1.00000000 0.0000000e+0 0.0000000e+0
vn 0.0000000e+0 0.0000000e+0 1.00000000
vn 0.0000000e+0 1.00000000 0.0000000e+0
vn 0.0000000e+0 1.00000000 0.0000000e+0
vn 1.00000000 0.0000000e+0 0.0000000e+0
vn 0.0000000e+0 0.0000000e+0 -1.00000000
vn 0.0000000e+0 1.00000000 0.0000000e+0
vn 0.0000000e+0 1.00000000 0.0000000e+0
vn 0.0000000e+0 0.0000000e+0 -1.00000000
vn -1.00000000 0.0000000e+0 0.0000000e+0
vn 0.0000000e+0 1.00000000 0.0000000e+0
vn 0.0000000e+0 1.00000000 0.0000000e+0
vn -1.00000000 0.0000000e+0 0.0000000e+0
vn 0.0000000e+0 0.0000000e+0 1.00000000
vn 0.0000000e+0 -1.00000000 0.0000000e+0
vn 0.0000000e+0 -1.00000000 0.0000000e+0
vn 1.00000000 0.0000000e+0 0.0000000e+0
vn 0.0000000e+0 0.0000000e+0 -1.00000000
vn 0.0000000e+0 -1.00000000 0.0000000e+0
vn 0.0000000e+0 -1.00000000 0.0000000e+0
vn 1.00000000 0.0000000e+0 0.0000000e+0
vn 0.0000000e+0 0.0000000e+0 1.00000000
vn 0.0000000e+0 -1.00000000 0.0000000e+0
vn 0.0000000e+0 -1.00000000 0.0000000e+0
vn 0.0000000e+0 0.0000000e+0 1.00000000
vn -1.00000000 0.0000000e+0 0.0000000e+0
vn 0.0000000e+0 -1.00000000 0.0000000e+0
vn 0.0000000e+0 -1.00000000 0.0000000e+0
vn -1.00000000 0.0000000e+0 0.0000000e+0
vn 0.0000000e+0 0.0000000e+0 -1.00000000
vn 0.0000000e+0 0.0000000e+0 1.00000000
vn 0.0000000e+0 0.0000000e+0 1.00000000
vn 1.00000000 0.0000000e+0 0.0000000e+0
vn 0.0000000e+0 -1.00000000 0.0000000e+0
vn 0.0000000e+0 0.0000000e+0 1.00000000
vn 0.0000000e+0 0.0000000e+0 1.00000000
vn 1.00000000 0.0000000e+0 0.0000000e+0
vn 0.0000000e+0 1.00000000 0.0000000e+0
vn 0.0000000e+0 0.0000000e+0 1.00000000
vn 0.0000000e+0 0.0000000e+0 1.00000000
vn 0.0000000e+0 1.00000000 0.0000000e+0
vn -1.00000000 0.0000000e+0 0.0000000e+0
vn 0.0000000e+0 0.0000000e+0 1.00000000
vn 0.0000000e+0 0.0000000e+0 1.00000000
vn -1.00000000 0.0000000e+0 0.0000000e+0
vn 0.0000000e+0 -1.00000000 0.0000000e+0
vn 0.0000000e+0 0.0000000e+0 -1.00000000
vn 0.0000000e+0 0.0000000e+0 -1.00000000
vn 1.00000000 0.0000000e+0 0.0000000e+0
vn 0.0000000e+0 1.00000000 0.0000000e+0
vn 0.0000000e+0 0.0000000e+0 -1.00000000
vn 0.0000000e+0 0.0000000e+0 -1.00000000
vn 1.00000000 0.0000000e+0 0.0000000e+0
vn 0.0000000e+0 -1.00000000 0.0000000e+0
vn 0.0000000e+0 0.0000000e+0 -1.00000000
vn 0.0000000e+0 0.0000000e+0 -1.00000000
vn 0.0000000e+0 -1.00000000 0.0000000e+0
vn -1.00000000 0.0000000e+0 0.0000000e+0
vn 0.0000000e+0 0.0000000e+0 -1.00000000
vn 0.0000000e+0 0.0000000e+0 -1.00000000
vn -1.00000000 0.0000000e+0 0.0000000e+0
vn 0.0000000e+0 1.00000000 0.0000000e+0
vn 1.00000000 0.0000000e+0 0.0000000e+0
vn 1.00000000 0.0000000e+0 0.0000000e+0
vn 0.0000000e+0 1.00000000 0.0000000e+0
vn 0.0000000e+0 0.0000000e+0 -1.00000000
vn 1.00000000 0.0000000e+0 0.0000000e+0
vn 1.00000000 0.0000000e+0 0.0000000e+0
vn 0.0000000e+0 1.00000000 0.0000000e+0
vn 0.0000000e+0 0.0000000e+0 1.00000000
vn 1.00000000 0.0000000e+0 0.0000000e+0
vn 1.00000000 0.0000000e+0 0.0000000e+0
vn 0.0000000e+0 0.0000000e+0 1.00000000
vn 0.0000000e+0 -1.00000000 0.0000000e+0
vn 1.00000000 0.0000000e+0 0.0000000e+0
vn 1.00000000 0.0000000e+0 0.0000000e+0
vn 0.0000000e+0 -1.00000000 0.0000000e+0
vn 0.0000000e+0 0.0000000e+0 -1.00000000
vn -1.00000000 0.0000000e+0 0.0000000e+0
vn -1.00000000 0.0000000e+0 0.0000000e+0
vn 0.0000000e+0 1.00000000 0.0000000e+0
vn 0.0000000e+0 0.0000000e+0 1.00000000
vn -1.00000000 0.0000000e+0 0.0000000e+0
vn -1.00000000 0.0000000e+0 0.0000000e+0
vn 0.0000000e+0 1.00000000 0.0000000e+0
vn 0.0000000e+0 0.0000000e+0 -1.00000000
vn -1.00000000 0.0000000e+0 0.0000000e+0
vn -1.00000000 0.0000000e+0 0.0000000e+0
vn 0.0000000e+0 0.0000000e+0 -1.00000000
vn 0.0000000e+0 -1.00000000 0.0000000e+0
vn -1.00000000 0.0000000e+0 0.0000000e+0
vn -1.00000000 0.0000000e+0 0.0000000e+0
vn 0.0000000e+0 -1.00000000 0.0000000e+0
vn 0.0000000e+0 0.0000000e+0 1.00000000
vn -1.00000000 0.0000000e+0 0.0000000e+0
vn 0.0000000e+0 1.00000000 0.0000000e+0
vn 0.0000000e+0 0.0000000e+0 1.00000000
vn -1.00000000 0.0000000e+0 0.0000000e+0
vn 0.0000000e+0 1.00000000 0.0000000e+0
vn 0.0000000e+0 0.0000000e+0 -1.00000000
vn -1.00000000 0.0000000e+0 0.0000000e+0
vn 0.0000000e+0 0.0000000e+0 -1.00000000
vn 0.0000000e+0 -1.00000000 0.0000000e+0
vn -1.00000000 0.0000000e+0 0.0000000e+0
vn 0.0000000e+0 -1.00000000 0.0000000e+0
vn 0.0000000e+0 0.0000000e+0 1.00000000
vn 1.00000000 0.0000000e+0 0.0000000e+0
vn 0.0000000e+0 1.00000000 0.0000000e+0
vn 0.0000000e+0 0.0000000e+0 -1.00000000
vn 1.00000000 0.0000000e+0 0.0000000e+0
vn 0.0000000e+0 1.00000000 0.0000000e+0
vn 0.0000000e+0 0.0000000e+0 1.00000000
vn 1.00000000 0.0000000e+0 0.0000000e+0
vn 0.0000000e+0 0.0000000e+0 1.00000000
vn 0.0000000e+0 -1.00000000 0.0000000e+0
vn 1.00000000 0.0000000e+0 0.0000000e+0
vn 0.0000000e+0 -1.00000000 0.0000000e+0
vn 0.0000000e+0 0.0000000e+0 -1.00000000
vn 0.0000000e+0 0.0000000e+0 -1.00000000
vn 1.00000000 0.0000000e+0 0.0000000e+0
vn 0.0000000e+0 1.00000000 0.0000000e+0
vn 0.0000000e+0 0.0000000e+0 -1.00000000
vn 1.00000000 0.0000000e+0 0.0000000e+0
vn 0.0000000e+0 -1.00000000 0.0000000e+0
vn 0.0000000e+0 0.0000000e+0 -1.00000000
vn 0.0000000e+0 -1.00000000 0.0000000e+0
vn -1.00000000 0.0000000e+0 0.0000000e+0
vn 0.0000000e+0 0.0000000e+0 -1.00000000
vn -1.00000000 0.0000000e+0 0.0000000e+0
vn 0.0000000e+0 1.00000000 0.0000000e+0
vn 0.0000000e+0 0.0000000e+0 1.00000000
vn 1.00000000 0.0000000e+0 0.0000000e+0
vn 0.0000000e+0 -1.00000000 0.0000000e+0
vn 0.0000000e+0 0.0000000e+0 1.00000000
vn 1.00000000 0.0000000e+0 0.0000000e+0
vn 0.0000000e+0 1.00000000 0.0000000e+0
vn 0.0000000e+0 0.0000000e+0 1.00000000
vn 0.0000000e+0 1.00000000 0.0000000e+0
vn -1.00000000 0.0000000e+0 0.0000000e+0
vn 0.0000000e+0 0.0000000e+0 1.00000000
vn -1.00000000 0.0000000e+0 0.0000000e+0
vn 0.0000000e+0 -1.00000000 0.0000000e+0
vn 0.0000000e+0 -1.00000000 0.0000000e+0
vn 1.00000000 0.0000000e+0 0.0000000e+0
vn 0.0000000e+0 0.0000000e+0 -1.00000000
vn 0.0000000e+0 -1.00000000 0.0000000e+0
vn 1.00000000 0.0000000e+0 0.0000000e+0
vn 0.0000000e+0 0.0000000e+0 1.00000000
vn 0.0000000e+0 -1.00000000 0.0000000e+0
vn 0.0000000e+0 0.0000000e+0 1.00000000
vn -1.00000000 0.0000000e+0 0.0000000e+0
vn 0.0000000e+0 -1.00000000 0.0000000e+0
vn -1.00000000 0.0000000e+0 0.0000000e+0
vn 0.0000000e+0 0.0000000e+0 -1.00000000
vn 0.0000000e+0 1.00000000 0.0000000e+0
vn 1.00000000 0.0000000e+0 0.0000000e+0
vn 0.0000000e+0 0.0000000e+0 1.00000000
vn 0.0000000e+0 1.00000000 0.0000000e+0
vn 1.00000000 0.0000000e+0 0.0000000e+0
vn 0.0000000e+0 0.0000000e+0 -1.00000000
vn 0.0000000e+0 1.00000000 0.0000000e+0
vn 0.0000000e+0 0.0000000e+0 -1.00000000
vn -1.00000000 0.0000000e+0 0.0000000e+0
vn 0.0000000e+0 1.00000000 0.0000000e+0
vn -1.00000000 0.0000000e+0 0.0000000e+0
vn 0.0000000e+0 0.0000000e+0 1.00000000
g Cube1_Cube1_auv
usemtl Cube1_auv
s 1
f 1/11/6 29/29/130 32/18/142 3/3/18
f 2/9/8 13/28/66 16/22/78 6/2/32
f 4/1/19 10/15/53 9/25/49 3/3/13
f 4/12/22 17/31/82 20/23/94 8/3/46
f 4/3/23 31/17/137 30/24/134 2/5/12
f 5/1/25 15/13/73 14/26/70 1/7/2
f 5/9/29 26/28/117 25/21/113 6/2/35
f 7/1/39 23/13/105 22/26/102 3/7/16
f 8/1/47 28/13/125 27/26/122 7/6/42
f 9/33/52 53/47/207 56/57/216 12/45/64
f 11/36/59 55/51/212 54/55/210 10/43/56
f 14/55/71 50/38/197 49/36/194 13/54/67
f 16/55/79 52/38/203 51/36/201 15/54/76
f 22/36/103 42/48/173 41/55/170 21/43/99
f 24/53/111 44/41/179 43/39/177 23/49/108
f 25/57/116 37/43/159 40/32/168 28/46/128
f 27/36/123 39/48/164 38/55/162 26/43/120
f 30/53/135 34/41/149 33/39/146 29/49/131
f 32/36/143 36/48/155 35/55/153 31/43/140
f 46/61/184 47/67/187 48/69/190 45/63/181
s 2
f 1/8/1 14/27/69 13/16/65 2/2/7
f 3/10/14 9/30/50 12/18/62 7/3/38
f 3/3/15 22/17/101 21/24/97 1/5/3
f 3/12/17 32/31/141 31/23/138 4/3/24
f 6/1/31 16/15/77 15/25/74 5/3/26
f 7/3/41 27/17/121 26/24/118 5/5/30
f 8/3/43 11/14/57 10/19/54 4/5/20
f 8/3/45 20/17/93 19/24/90 6/5/34
f 13/56/68 49/44/195 52/34/204 16/49/80
f 15/53/75 51/42/200 50/40/198 14/52/72
f 18/53/87 46/41/185 45/39/182 17/49/83
f 29/57/132 33/43/147 36/32/156 32/46/144
f 31/36/139 35/48/152 34/55/150 30/43/136
f 38/68/160 39/69/163 40/60/166 37/59/157
f 42/69/172 43/66/175 44/65/178 41/67/169
f 54/62/208 55/68/211 56/69/214 53/64/205
s 3
f 2/11/9 18/29/85 17/18/81 4/3/21
f 2/3/11 30/14/133 29/20/129 1/5/5
f 5/11/27 24/29/109 23/18/106 7/3/40
f 6/11/36 25/29/114 28/18/126 8/3/48
f 10/36/55 54/51/209 53/55/206 9/43/51
f 12/36/63 56/51/215 55/55/213 11/43/60
f 17/56/84 45/44/183 48/34/192 20/49/96
f 19/55/91 47/38/188 46/36/186 18/54/88
f 21/33/100 41/47/171 44/57/180 24/45/112
f 23/36/107 43/51/176 42/55/174 22/43/104
f 26/36/119 38/48/161 37/55/158 25/43/115
f 28/55/127 40/37/167 39/35/165 27/50/124
f 34/68/148 35/69/151 36/60/154 33/59/145
f 50/69/196 51/60/199 52/58/202 49/67/193
s 4
f 1/9/4 21/28/98 24/22/110 5/2/28
f 6/3/33 19/14/89 18/20/86 2/4/10
f 7/8/37 12/27/61 11/16/58 8/2/44
f 20/36/95 48/48/191 47/55/189 19/43/92
